# xmcd
#
# Track frame offsets:
# 150
# 10200
# 22662
# 33690
# 47545
# 58802
# 69250
# 85320
# 96655
# 111862
# 126940
# 137482
# 148280
# 155722
# 166432
# 181800
# 195747
# 206752
# 216020
# 231732
#
# Disc length: 3313 seconds
#
#
# Revision: 0
# Processed by: cddbd v1.5.1PL0 Copyright (c) Steve Scherf et al.
# Submitted via: FreeRIP 2.942 
#
DISCID=2b0cef14
DTITLE=Various Artist - Honky Tonk 20 Hits
DYEAR=2004
DGENRE=Country
TTITLE0=Lefty Frizzell - Watermelon Time In Georgia
TTITLE1=Gene Watson - Honky Tonk Crazy
TTITLE2=Vern Gosdin - Set Em Up Joe
TTITLE3=Moe Bandy - I Cheated Me Right Out Of You
TTITLE4=Ray Price - Crazy Arms
TTITLE5=Johnny Paycheck - Jukebox Charlie
TTITLE6=Merle Haggard - It's Not Love But It's Not Bad
TTITLE7=Kitty Wells - It Wasn't God Who Made Honky Tonk Angels
TTITLE8=Ed Bruce - Mammas Don't Let Your Babies Grow Up To Be Cowboys
TTITLE9=Whitey Shaffer - All My Ex's Live In Texas
TTITLE10=Mickey Gilley - She Callled Me Baby
TTITLE11=Ferlin Husky - Gone
TTITLE12=Willie Nelson - I Gotta Get Drunk
TTITLE13=Patsy Cline - Honky Tonk Merry Go Round
TTITLE14=Don Gibson - Sweet Dreams
TTITLE15=Conway Twitty - 15 Years Ago
TTITLE16=Carl Smith - Hey Joe
TTITLE17=Charlie Walker - Pick Me Up On Your Way Down
TTITLE18=Doug Stone - Jukebox With A Country Song
TTITLE19=T G Sheppard - Last Cheaters Waltz
EXTD=Twin Pack Music
EXTT0=
EXTT1=
EXTT2=
EXTT3=
EXTT4=
EXTT5=
EXTT6=
EXTT7=
EXTT8=
EXTT9=
EXTT10=
EXTT11=
EXTT12=
EXTT13=
EXTT14=
EXTT15=
EXTT16=
EXTT17=
EXTT18=
EXTT19=
PLAYORDER=
